<?xml version="1.0" encoding="utf-8"?>
<!-- Generator: Adobe Illustrator 22.0.0, SVG Export Plug-In . SVG Version: 6.00 Build 0)  -->
<svg version="1.1" id="Layer_1" xmlns="http://www.w3.org/2000/svg" xmlns:xlink="http://www.w3.org/1999/xlink" x="0px" y="0px"
	 viewBox="0 0 216 216" style="enable-background:new 0 0 216 216;" xml:space="preserve">
<style type="text/css">
	.st0{fill:#FFFFFF;}
</style>
<path class="st0" d="M4,206.5h156.7V55.2H4V206.5z M12.7,63.9H152v133.8H12.7V63.9z M33.4,41.6h148.5v143.1h8.2V33.5H33.4V41.6z
	 M57.3,9.5v8.2h148.5v143.1h8.2V9.5H57.3z M82.9,76.4c-29.4,0-53.3,23.9-53.3,53.3s23.9,53.3,53.3,53.3s53.3-23.9,53.3-53.3
	S112.3,76.4,82.9,76.4z M82.9,174.4c-24.6,0-44.6-20-44.6-44.6s20-44.6,44.6-44.6s44.6,20,44.6,44.6S107.5,174.4,82.9,174.4z
	 M85.2,122.3v-15c2.6,1.1,4.3,3.1,4.9,6.1l10.3-1.3c-0.7-3.8-2.3-6.9-4.9-9.2c-2.6-2.3-6-3.7-10.3-4.2V95h-5.9v3.8
	c-4.7,0.4-8.4,2.1-11.2,4.9s-4.2,6.4-4.2,10.6c0,4.1,1.2,7.7,3.7,10.6c2.5,2.9,6.4,5.1,11.7,6.5v16.1c-1.5-0.7-2.8-1.7-4-3.2
	c-1.2-1.5-2-3.2-2.4-5.3L62.2,140c0.8,5,2.7,8.9,5.6,11.7c2.9,2.8,6.8,4.4,11.5,4.9v7h5.9v-7.2c5.3-0.7,9.4-2.7,12.4-5.8
	c3-3.2,4.5-7.1,4.5-11.7c0-4.1-1.2-7.5-3.5-10.2C96.1,126.1,91.7,123.9,85.2,122.3z M79.2,120.4c-1.8-0.7-3.1-1.7-4-2.8
	c-0.9-1.2-1.3-2.4-1.3-3.8c0-1.5,0.5-2.8,1.4-4.1c1-1.2,2.2-2.1,3.8-2.6V120.4z M90.1,145.3c-1.3,1.4-2.9,2.3-5,2.7V133
	c2.4,0.7,4.2,1.6,5.3,2.9c1.1,1.2,1.6,2.7,1.6,4.4C92,142.2,91.4,143.9,90.1,145.3z"/>
</svg>
