<?xml version="1.0" encoding="utf-8"?>
<!-- Generator: Adobe Illustrator 22.0.0, SVG Export Plug-In . SVG Version: 6.00 Build 0)  -->
<svg version="1.1" id="Layer_1" xmlns="http://www.w3.org/2000/svg" xmlns:xlink="http://www.w3.org/1999/xlink" x="0px" y="0px"
	 viewBox="0 0 216 216" style="enable-background:new 0 0 216 216;" xml:space="preserve">
<style type="text/css">
	.st0{fill:#FFFFFF;}
</style>
<path class="st0" d="M174,98h-10V58c0-29.8-24.2-54-54-54h-3C77.2,4,53,28.2,53,58v19h18V58c0-19.9,16.2-36,36-36h3
	c19.8,0,36,16.1,36,36v40H43c-6.6,0-12,5.4-12,12v88c0,6.6,5.4,12,12,12h131c6.6,0,12-5.4,12-12v-88C186,103.4,180.6,98,174,98z
	 M116,158.9v16.6c0,4.1-3.4,7.5-7.5,7.5s-7.5-3.4-7.5-7.5v-16.6c-4.2-2.5-7-7.1-7-12.4c0-8,6.5-14.5,14.5-14.5s14.5,6.5,14.5,14.5
	C123,151.8,120.2,156.4,116,158.9z"/>
</svg>
