<?xml version="1.0" encoding="utf-8"?>
<!-- Generator: Adobe Illustrator 22.0.0, SVG Export Plug-In . SVG Version: 6.00 Build 0)  -->
<svg version="1.1" id="Layer_1" xmlns="http://www.w3.org/2000/svg" xmlns:xlink="http://www.w3.org/1999/xlink" x="0px" y="0px"
	 viewBox="0 0 216 216" style="enable-background:new 0 0 216 216;" xml:space="preserve">
<style type="text/css">
	.st0{fill:#FFFFFF;}
</style>
<path class="st0" d="M172.5,30.5H150v-5.8c0-4.2-3.5-7.7-7.7-7.7h-9.7c-2.3,0-4.4-1.1-5.7-3C122.6,7.4,115,3,106.5,3S90.4,7.4,86,14
	c-1.3,1.9-3.4,3-5.7,3h-7.7c-4.2,0-7.7,3.5-7.7,7.7v5.8H42.5c-9.4,0-17,7.6-17,17v147c0,9.4,7.6,17,17,17h130c9.4,0,17-7.6,17-17
	v-147C189.5,38.1,181.9,30.5,172.5,30.5z M76,28h12.4c0,0,0,0,0,0c0.3,0,1.9-0.1,2.7-2.5c0,0,0,0,0,0c0.4-3.3,1.8-6.2,4-8.5
	c2.8-3.1,6.9-5,11.4-5s8.6,1.9,11.4,5c1.8,1.9,3,4.2,3.7,6.8c0,0,0,0.2,0.1,0.4c0.3,1,1.3,3.8,3.5,3.8H139v19H76V28z M179.5,194.5
	c0,3.9-3.1,7-7,7h-130c-3.9,0-7-3.1-7-7v-147c0-3.9,3.1-7,7-7H65v9.8c0,4.2,3.5,7.7,7.7,7.7h69.7c4.2,0,7.7-3.5,7.7-7.7v-9.8h22.5
	c3.9,0,7,3.1,7,7V194.5z M160,85h-57c-2.8,0-5,2.3-5,5s2.3,5,5,5h57c2.8,0,5-2.3,5-5S162.8,85,160,85z M160,124h-57
	c-2.8,0-5,2.3-5,5s2.3,5,5,5h57c2.8,0,5-2.3,5-5S162.8,124,160,124z M160,164h-57c-2.8,0-5,2.3-5,5s2.3,5,5,5h57c2.8,0,5-2.3,5-5
	S162.8,164,160,164z M82.4,74.5L65.7,89.8l-7.1-7.1c-1.8-1.8-4.6-1.8-6.4,0c-1.8,1.8-1.8,4.6,0,6.4l10.2,10.2c1.8,1.8,4.6,1.8,6.4,0
	c0.1-0.1,0.1-0.1,0.1-0.2c0,0,0.1-0.1,0.2-0.1l19.5-17.8c1.8-1.7,2-4.5,0.3-6.4C87.1,73,84.2,72.8,82.4,74.5z M82.4,114.5
	l-16.7,15.3l-7.1-7.1c-1.8-1.8-4.6-1.8-6.4,0c-1.8,1.8-1.8,4.6,0,6.4l10.2,10.2c1.8,1.8,4.6,1.8,6.4,0c0.1-0.1,0.1-0.1,0.1-0.2
	c0,0,0.1-0.1,0.2-0.1l19.5-17.8c1.8-1.7,2-4.5,0.3-6.4C87.1,113,84.2,112.8,82.4,114.5z M82.4,154.5l-16.7,15.3l-7.1-7.1
	c-1.8-1.8-4.6-1.8-6.4,0c-1.8,1.8-1.8,4.6,0,6.4l10.2,10.2c1.8,1.8,4.6,1.8,6.4,0c0.1-0.1,0.1-0.1,0.1-0.2c0,0,0.1-0.1,0.2-0.1
	l19.5-17.8c1.8-1.7,2-4.5,0.3-6.4C87.1,153,84.2,152.8,82.4,154.5z"/>
</svg>
