<?xml version="1.0" encoding="utf-8"?>
<!-- Generator: Adobe Illustrator 22.0.0, SVG Export Plug-In . SVG Version: 6.00 Build 0)  -->
<svg version="1.1" id="Layer_1" xmlns="http://www.w3.org/2000/svg" xmlns:xlink="http://www.w3.org/1999/xlink" x="0px" y="0px"
	 viewBox="0 0 216 216" style="enable-background:new 0 0 216 216;" xml:space="preserve">
<style type="text/css">
	.st0{fill:#FFFFFF;}
</style>
<path class="st0" d="M207.8,201.4h-8.4v-105h0c0-2.2-1.4-4.3-3.6-5l-69.9-23V47.1h0c0-2.1-1.3-4.1-3.4-4.9L22.8,4.4
	c-0.1,0-0.2-0.1-0.4-0.1c-0.2-0.1-0.4-0.1-0.6-0.2c-0.2,0-0.4,0-0.6-0.1c-0.1,0-0.3,0-0.4,0c0,0-0.1,0-0.1,0c-0.2,0-0.4,0-0.6,0.1
	c-0.2,0-0.3,0-0.5,0.1c-0.2,0-0.3,0.1-0.5,0.1c-0.2,0.1-0.4,0.1-0.5,0.2c-0.1,0.1-0.3,0.1-0.4,0.2c-0.2,0.1-0.3,0.2-0.5,0.3
	c-0.1,0.1-0.3,0.2-0.4,0.3c-0.1,0.1-0.3,0.2-0.4,0.3C17,5.8,16.9,5.9,16.8,6c-0.1,0.1-0.2,0.3-0.3,0.4c-0.1,0.1-0.1,0.3-0.2,0.4
	C16.2,7,16.1,7.2,16,7.4c0,0,0,0.1,0,0.1c0,0.1-0.1,0.2-0.1,0.4c-0.1,0.2-0.1,0.4-0.1,0.6c0,0.2,0,0.4-0.1,0.6c0,0.1,0,0.2,0,0.4
	v192.1H7.2c-2.9,0-5.2,2.3-5.2,5.2s2.4,5.2,5.2,5.2h200.5c2.9,0,5.2-2.3,5.2-5.2S210.7,201.4,207.8,201.4z M65,198.8H50.8v-26.2H65
	V198.8z M89.7,198.8H75.5v-26.2h14.2V198.8z M115.4,201.4h-15.2v-31.8c0-4.1-3.4-7.5-7.5-7.5H47.8c-4.1,0-7.5,3.4-7.5,7.5v31.8H26.1
	V16.9l89.2,33.8V201.4z M163.7,200.9h-14.2v-26.2h14.2V200.9z M188.9,201.4h-14.7v-29.7c0-4.1-3.4-7.5-7.5-7.5h-20.1
	c-4.1,0-7.5,3.4-7.5,7.5v29.7h-13.1V79.6l63,20.7V201.4z M45.8,77.6H59c3.3,0,6-2.7,6-6V71c0-3.3-2.7-6-6-6H45.8c-3.3,0-6,2.7-6,6
	v0.6C39.8,74.9,42.5,77.6,45.8,77.6z M45.8,101.7H59c3.3,0,6-2.7,6-6v-0.6c0-3.3-2.7-6-6-6H45.8c-3.3,0-6,2.7-6,6v0.6
	C39.8,99,42.5,101.7,45.8,101.7z M45.8,126.9H59c3.3,0,6-2.7,6-6v-0.6c0-3.3-2.7-6-6-6H45.8c-3.3,0-6,2.7-6,6v0.6
	C39.8,124.2,42.5,126.9,45.8,126.9z M45.8,152.1H59c3.3,0,6-2.7,6-6v-0.6c0-3.3-2.7-6-6-6H45.8c-3.3,0-6,2.7-6,6v0.6
	C39.8,149.4,42.5,152.1,45.8,152.1z M82.5,77.6h13.2c3.3,0,6-2.7,6-6V71c0-3.3-2.7-6-6-6H82.5c-3.3,0-6,2.7-6,6v0.6
	C76.5,74.9,79.2,77.6,82.5,77.6z M82.5,101.7h13.2c3.3,0,6-2.7,6-6v-0.6c0-3.3-2.7-6-6-6H82.5c-3.3,0-6,2.7-6,6v0.6
	C76.5,99,79.2,101.7,82.5,101.7z M82.5,126.9h13.2c3.3,0,6-2.7,6-6v-0.6c0-3.3-2.7-6-6-6H82.5c-3.3,0-6,2.7-6,6v0.6
	C76.5,124.2,79.2,126.9,82.5,126.9z M82.5,152.1h13.2c3.3,0,6-2.7,6-6v-0.6c0-3.3-2.7-6-6-6H82.5c-3.3,0-6,2.7-6,6v0.6
	C76.5,149.4,79.2,152.1,82.5,152.1z M144.5,126.9h24.7c3.3,0,6-2.7,6-6v-0.6c0-3.3-2.7-6-6-6h-24.7c-3.3,0-6,2.7-6,6v0.6
	C138.5,124.2,141.2,126.9,144.5,126.9z M144.5,151h24.7c3.3,0,6-2.7,6-6v-0.6c0-3.3-2.7-6-6-6h-24.7c-3.3,0-6,2.7-6,6v0.6
	C138.5,148.3,141.2,151,144.5,151z"/>
</svg>
