<?xml version="1.0" encoding="utf-8"?>
<!-- Generator: Adobe Illustrator 22.0.0, SVG Export Plug-In . SVG Version: 6.00 Build 0)  -->
<svg version="1.1" id="Layer_1" xmlns="http://www.w3.org/2000/svg" xmlns:xlink="http://www.w3.org/1999/xlink" x="0px" y="0px"
	 viewBox="0 0 216 216" style="enable-background:new 0 0 216 216;" xml:space="preserve">
<path d="M100.2,79.8c-1.3,1.7-1.9,3.6-1.9,5.7c0,1.9,0.6,3.7,1.8,5.3c1.2,1.6,3,3,5.3,4V76.1C103.2,76.8,101.5,78.1,100.2,79.8z
	 M113.4,112.5v21c2.8-0.5,5-1.8,6.7-3.8c1.7-2,2.6-4.3,2.6-7c0-2.4-0.7-4.5-2.2-6.2C119.1,114.7,116.7,113.4,113.4,112.5z
	 M172,105.5C172,71,144,43,109.5,43S47,71,47,105.5C47,140,75,168,109.5,168S172,140,172,105.5z M130.2,137.2
	c-4,4.5-9.6,7.2-16.8,8.2v10.1h-8v-9.8c-6.4-0.8-11.5-3.1-15.5-7c-4-3.9-6.5-9.4-7.6-16.5l14.4-1.5c0.6,2.9,1.7,5.4,3.3,7.4
	c1.6,2.1,3.4,3.6,5.4,4.5v-22.6c-7.2-2-12.5-5.1-15.8-9.1c-3.4-4.1-5-9-5-14.9c0-5.9,1.9-10.8,5.7-14.9c3.8-4,8.9-6.3,15.2-6.9V59h8
	v5.3c5.8,0.7,10.5,2.6,13.9,5.8c3.4,3.2,5.6,7.5,6.6,12.9L120,84.9c-0.9-4.2-3-7.1-6.6-8.6v21.1c8.8,2.3,14.8,5.4,18,9.1
	c3.2,3.7,4.8,8.5,4.8,14.3C136.2,127.3,134.2,132.8,130.2,137.2z M98,37c-0.5-13.5,0.5-19.5,0.5-19.5h-56v-15l-40,37l39,39v-19
	L56,60C56,60,76,37,98,37z M215,174l-39-39v19l-14.5-0.5c0,0-20,23-42,23C120,190,119,196,119,196h56v15L215,174z"/>
</svg>
