<?xml version="1.0" encoding="utf-8"?>
<!-- Generator: Adobe Illustrator 22.0.0, SVG Export Plug-In . SVG Version: 6.00 Build 0)  -->
<svg version="1.1" id="Layer_1" xmlns="http://www.w3.org/2000/svg" xmlns:xlink="http://www.w3.org/1999/xlink" x="0px" y="0px"
	 viewBox="0 0 216 216" style="enable-background:new 0 0 216 216;" xml:space="preserve">
<style type="text/css">
	.st0{fill:#FFFFFF;}
</style>
<path class="st0" d="M52.2,179.2c-2.8,0-5.1,2.3-5.1,5.1v24.6c0,2.8,2.3,5.1,5.1,5.1s5.1-2.3,5.1-5.1v-24.6
	C57.3,181.5,55,179.2,52.2,179.2z M194.9,160.7h-10.4c-4.8-8.9-13.1-13.6-17.3-15.9c-6.1-3.4-29.6-12.7-38.3-16.1v-14.2
	c10.5-9.3,13.3-21.9,13.3-25.4V83h3.5c4.9,0,8.8-4,8.8-8.8V60c0-3.9-2.6-7.3-6.2-8.4c-0.3-10.2-2.8-25.9-13.8-37.2
	C126.4,6.2,115.3,2,101.3,2C87.4,2,76.1,6.3,67.8,14.8c-12.7,13-14.4,31.8-14.6,37.7c-2.5,1.6-4.1,4.3-4.1,7.4V74
	c0,4.9,4,8.8,8.8,8.8h2.5v2V85c0.2,7.5,3.7,19.4,13.3,28.4v15.1c-2.2,0.9-5.2,2.1-8.7,3.5c-0.9,0.3-1.7,0.7-2.6,1.1
	c-10.2,4.2-22.8,9.4-27,11.9c-6.3,3.6-21,12-21,32.1v31.7c0,2.8,2.3,5.1,5.1,5.1s5.1-2.3,5.1-5.1v-31.7c0-12.4,7.6-18.5,15.9-23.2
	c3.3-1.9,13.4-6.2,23-10.1l15.1,25.7c0.1,0.2,0.3,0.4,0.4,0.6l0,0c0.1,0.1,0.2,0.2,0.3,0.3l0.1,0.1c0.2,0.1,0.3,0.3,0.5,0.4L80,171
	c0.1,0.1,0.3,0.2,0.4,0.3c0.1,0,0.1,0.1,0.2,0.1c0.1,0.1,0.2,0.1,0.4,0.2c0.1,0,0.1,0.1,0.2,0.1s0.3,0.1,0.4,0.1s0.1,0,0.2,0.1
	c0.1,0,0.3,0.1,0.4,0.1s0.1,0,0.2,0c0.2,0,0.4,0,0.6,0l0,0l0,0l0,0l0,0c0.3,0,0.5,0,0.8-0.1c0.1,0,0.2,0,0.3-0.1
	c0.2,0,0.3-0.1,0.5-0.1c0.1,0,0.2-0.1,0.3-0.1c0.2-0.1,0.3-0.1,0.5-0.2c0.1,0,0.2-0.1,0.2-0.1l0,0l0.1-0.1c0.2-0.1,0.4-0.2,0.6-0.4
	l7-5.9L84,207.8c-0.6,2.8,1.2,5.5,3.9,6.1c0.4,0.1,0.7,0.1,1.1,0.1c2.4,0,4.5-1.6,5-4l7.3-34l7.3,34c0.5,2.4,2.6,4,5,4
	c0.4,0,0.7,0,1.1-0.1c2.8-0.6,4.5-3.3,3.9-6.1l-9.2-42.9l7,5.9c0.2,0.2,0.4,0.3,0.6,0.4l0.1,0.1l0,0c0.1,0,0.2,0.1,0.2,0.1
	c0.2,0.1,0.3,0.2,0.5,0.2c0.1,0,0.2,0.1,0.3,0.1c0.2,0.1,0.3,0.1,0.5,0.1c0.1,0,0.2,0,0.3,0.1c0.3,0,0.5,0.1,0.8,0.1l0,0l0,0l0,0
	l0,0c0.2,0,0.4,0,0.6,0c0.1,0,0.1,0,0.2,0s0.3,0,0.4-0.1c0.1,0,0.1,0,0.2-0.1c0.1,0,0.3-0.1,0.4-0.1s0.1-0.1,0.2-0.1
	c0.1-0.1,0.2-0.1,0.4-0.2c0.1,0,0.1-0.1,0.2-0.1c0.1-0.1,0.3-0.2,0.4-0.3l0.1-0.1c0.2-0.1,0.3-0.3,0.5-0.4l0.1-0.1
	c0.1-0.1,0.2-0.2,0.3-0.3l0,0c0.2-0.2,0.3-0.4,0.4-0.6l15.1-25.7l0,0c9.7,3.9,19.8,8.1,23.1,10c3.5,1.9,6.9,4.1,9.7,7h-31.1
	c-4.9,0-8.8,4-8.8,8.8v33.6c0,4.9,4,8.8,8.8,8.8H195c4.9,0,8.8-4,8.8-8.8v-33.6C203.7,164.7,199.8,160.7,194.9,160.7z M142.3,61.4h2
	v11.3h-2V61.4z M60.4,72.7h-1V61.4h1V72.7z M64.4,44.4c1.3-6.8,4.2-15.8,10.7-22.5c6.3-6.4,15.1-9.7,26.1-9.7
	c11.1,0,19.8,3.1,25.9,9.4c5.5,5.6,8.3,12.9,9.6,19.5c-2.6-3.3-6.4-5.9-11.6-6.3c-2.4-0.2-4.6,1.3-5.3,3.4c-0.2-0.3-0.5-0.7-0.7-0.9
	c-2-2-5.2-2-7.2,0c-1.1,1.1-5.8,4.8-9.3,3.8c-1.8-0.5-3.8-1.6-5.9-2.7c-5-2.7-11.2-6.1-18.8-3.3l-0.4,0.2c-0.2,0.1-0.4,0.2-0.7,0.3
	C74.4,36.5,68.5,38.7,64.4,44.4z M70.6,84.8V55.7c1.3-6.8,5.7-9,9.8-10.5c0.5-0.2,1-0.4,1.4-0.5c3-1.1,5.7,0.3,10.1,2.7
	c2.5,1.4,5.1,2.8,8,3.6c9.8,2.8,18.4-5.5,19.4-6.4c0.6-0.6,1-1.3,1.2-2c0.8,1.3,2.2,2.3,3.9,2.4c6.3,0.6,7.5,10.3,7.6,11.5V89
	c0,0.2-3,24.5-31.5,25.7C72.4,111,70.7,86.6,70.6,84.8z M84.2,159.1L73,139.9c1.2-0.5,2.3-0.9,3.4-1.4l16.8,13.1L84.2,159.1z
	 M101.3,145l-17.4-13.6v-11c4.5,2.1,9.7,3.7,15.8,4.5h0.4h0.4c7.2-0.2,13.2-1.7,18.3-3.9v10.4L101.3,145z M129.6,140l-11.2,19.1
	l-8.9-7.4l16.7-13.1C127.2,139,128.4,139.5,129.6,140L129.6,140z M193.5,201.7h-51.2V171h39l0,0l0,0h12.1L193.5,201.7L193.5,201.7z
	 M150,173.5c-2.3,0-4.1,1.8-4.1,4.1s1.8,4.1,4.1,4.1s4.1-1.8,4.1-4.1C154.1,175.4,152.2,173.5,150,173.5z M150,188.9
	c-2.3,0-4.1,1.8-4.1,4.1s1.8,4.1,4.1,4.1s4.1-1.8,4.1-4.1S152.2,188.9,150,188.9z M161.2,173.5c-2.3,0-4.1,1.8-4.1,4.1
	s1.8,4.1,4.1,4.1s4.1-1.8,4.1-4.1C165.3,175.4,163.5,173.5,161.2,173.5z M161.2,188.9c-2.3,0-4.1,1.8-4.1,4.1s1.8,4.1,4.1,4.1
	s4.1-1.8,4.1-4.1S163.5,188.9,161.2,188.9z M173.5,173.5c-2.3,0-4.1,1.8-4.1,4.1s1.8,4.1,4.1,4.1s4.1-1.8,4.1-4.1
	C177.6,175.4,175.8,173.5,173.5,173.5z M173.5,188.9c-2.3,0-4.1,1.8-4.1,4.1s1.8,4.1,4.1,4.1s4.1-1.8,4.1-4.1
	S175.8,188.9,173.5,188.9z M185.8,181.7c2.3,0,4.1-1.8,4.1-4.1s-1.8-4.1-4.1-4.1s-4.1,1.8-4.1,4.1S183.5,181.7,185.8,181.7z
	 M185.8,197.1c2.3,0,4.1-1.8,4.1-4.1s-1.8-4.1-4.1-4.1s-4.1,1.8-4.1,4.1S183.5,197.1,185.8,197.1z"/>
</svg>
