<?xml version="1.0" encoding="utf-8"?>
<!-- Generator: Adobe Illustrator 22.0.0, SVG Export Plug-In . SVG Version: 6.00 Build 0)  -->
<svg version="1.1" id="Layer_1" xmlns="http://www.w3.org/2000/svg" xmlns:xlink="http://www.w3.org/1999/xlink" x="0px" y="0px"
	 viewBox="0 0 216 216" style="enable-background:new 0 0 216 216;" xml:space="preserve">
<style type="text/css">
	.st0{fill:#0C0F3A;}
</style>
<path class="st0" d="M108.7,7.6c-55.8,0-101,45.2-101,101c0,55.8,45.2,101,101,101c55.8,0,101-45.2,101-101
	C209.7,52.9,164.4,7.6,108.7,7.6z M108.7,198.6c-49.6,0-90-40.4-90-90s40.4-90,90-90s90,40.4,90,90S158.3,198.6,108.7,198.6z
	 M97.2,168.4h22.9V81.8H97.2V168.4z M97.2,70h22.9V48.8H97.2V70z"/>
</svg>
