<?xml version="1.0" encoding="utf-8"?>
<!-- Generator: Adobe Illustrator 22.0.0, SVG Export Plug-In . SVG Version: 6.00 Build 0)  -->
<svg version="1.1" id="Layer_1" xmlns="http://www.w3.org/2000/svg" xmlns:xlink="http://www.w3.org/1999/xlink" x="0px" y="0px"
	 viewBox="0 0 216 216" style="enable-background:new 0 0 216 216;" xml:space="preserve">
<style type="text/css">
	.st0{fill:#0C0F3A;}
</style>
<path class="st0" d="M80.2,213.3l1.3-119.4L14.8,25.1c-3.8-3.9-4.8-9.6-2.7-14.6c2.1-4.9,6.7-8,11.9-8H193c5.2,0,9.9,3.2,11.9,8
	c2.1,5,1,10.8-2.8,14.6l-66.6,67.6v83.4c0,7.9-4.5,15-11.6,18.1L80.2,213.3z M30.7,18.5l66.9,69l-1.1,101.3l21.1-9.2
	c1.2-0.5,2-1.9,2-3.4V86.3l66.7-67.8H30.7z"/>
</svg>
