<?xml version="1.0" encoding="utf-8"?>
<!-- Generator: Adobe Illustrator 22.0.0, SVG Export Plug-In . SVG Version: 6.00 Build 0)  -->
<svg version="1.1" id="Layer_1" xmlns="http://www.w3.org/2000/svg" xmlns:xlink="http://www.w3.org/1999/xlink" x="0px" y="0px"
	 viewBox="0 0 216 216" style="enable-background:new 0 0 216 216;" xml:space="preserve">
<style type="text/css">
	.st0{fill:#FFFFFF;}
</style>
<path class="st0" d="M159.4,37.1c-5.3-3.5-12.4,0.3-12.4,6.7c0,2.7,1.4,5.2,3.7,6.7c21.7,14.3,35.6,39.3,34.2,67.5
	c-2,38.6-33.1,69.9-71.7,72C69.4,192.2,33,157.3,33,114c0-27.7,14.9-51.9,37-65.2c2.4-1.5,4-4.1,4-6.9c0-6.2-6.7-10.1-12-6.9
	C34.4,51.4,16.1,81.9,17,116.4c1.2,48.2,40.1,87.7,88.4,89.5c52.4,2,95.6-40,95.6-91.9C201,81.9,184.4,53.5,159.4,37.1z M110,137
	c6,0,11-5,11-11V19c0-6.1-5-11-11-11s-11,4.9-11,11v107C99,132,104,137,110,137z"/>
</svg>
