<?xml version="1.0" encoding="utf-8"?>
<!-- Generator: Adobe Illustrator 22.0.0, SVG Export Plug-In . SVG Version: 6.00 Build 0)  -->
<svg version="1.1" id="Layer_1" xmlns="http://www.w3.org/2000/svg" xmlns:xlink="http://www.w3.org/1999/xlink" x="0px" y="0px"
	 viewBox="0 0 216 216" style="enable-background:new 0 0 216 216;" xml:space="preserve">
<style type="text/css">
	.st0{fill:#FFFFFF;}
</style>
<path class="st0" d="M152.5,56c0-24.5-20-44.5-44.5-44.5c-24.5,0-44.5,20-44.5,44.5s20,44.5,44.5,44.5
	C132.5,100.5,152.5,80.5,152.5,56z M108,92.5c-20.1,0-36.5-16.4-36.5-36.5S87.9,19.5,108,19.5s36.5,16.4,36.5,36.5
	S128.1,92.5,108,92.5z M110.3,51.1V39c2,0.9,3.2,2.5,3.7,5l7.8-1c-0.5-3.1-1.8-5.6-3.7-7.4c-1.9-1.8-4.6-3-7.8-3.4v-3.1h-4.5v3.1
	c-3.6,0.4-6.4,1.7-8.5,4s-3.2,5.1-3.2,8.5c0,3.3,0.9,6.2,2.8,8.5c1.9,2.3,4.9,4.1,8.9,5.2v13c-1.1-0.5-2.1-1.4-3-2.6
	c-0.9-1.2-1.5-2.6-1.9-4.3l-8.1,0.9c0.6,4.1,2,7.2,4.3,9.4c2.2,2.2,5.1,3.6,8.7,4v5.6h4.5v-5.8c4-0.6,7.2-2.1,9.4-4.7
	c2.3-2.6,3.4-5.7,3.4-9.4c0-3.3-0.9-6.1-2.7-8.2C118.6,54.2,115.3,52.4,110.3,51.1z M105.8,49.6c-1.3-0.6-2.3-1.3-3-2.3
	c-0.7-0.9-1-2-1-3.1c0-1.2,0.4-2.3,1.1-3.3s1.7-1.7,2.9-2.1V49.6z M114.1,69.7c-1,1.1-2.2,1.9-3.8,2.2V59.8c1.9,0.5,3.2,1.3,4,2.3
	c0.8,1,1.2,2.2,1.2,3.6C115.5,67.2,115,68.5,114.1,69.7z M97,190H12V59h43v-8H4v147h101v-90h-8V190z M162,51v8h43v131h-85v-82h-8v90
	h101V51H162z M42.7,90.5l-0.9,50.6h-8.3l20.3,27.6L74,142h-7.4l0.9-51.5H42.7z M46.4,179.2c0,3.8,3.1,6.9,6.9,6.9
	c3.8,0,6.9-3.1,6.9-6.9c0-3.8-3.1-6.9-6.9-6.9C49.5,172.3,46.4,175.4,46.4,179.2z M149.7,90.5l-0.9,50.6h-8.3l20.3,27.6L181,142
	h-7.4l0.9-51.5H149.7z M153.4,179.2c0,3.8,3.1,6.9,6.9,6.9c3.8,0,6.9-3.1,6.9-6.9c0-3.8-3.1-6.9-6.9-6.9
	C156.5,172.3,153.4,175.4,153.4,179.2z"/>
</svg>
