<?xml version="1.0" encoding="utf-8"?>
<!-- Generator: Adobe Illustrator 22.0.0, SVG Export Plug-In . SVG Version: 6.00 Build 0)  -->
<svg version="1.1" id="Layer_1" xmlns="http://www.w3.org/2000/svg" xmlns:xlink="http://www.w3.org/1999/xlink" x="0px" y="0px"
	 viewBox="0 0 216 216" style="enable-background:new 0 0 216 216;" xml:space="preserve">
<style type="text/css">
	.st0{fill:#FFFFFF;}
	.st1{display:none;fill:none;stroke:#FF0000;stroke-miterlimit:10;}
</style>
<path class="st0" d="M29.5,182.5c-52-43,28-110,28-110l3,11l23-42l-45,13c0,0,5,2,10,5c-36,33-48,71-46,89c10,69,85,42,103,34
	C81.5,190.5,50.5,197.5,29.5,182.5z M214,65c-10.6-68.9-85.4-41.3-103.3-33.1c23.9-8.2,54.9-15.5,76-0.6
	c52.4,42.6-27.1,110.2-27.1,110.2l-3.1-11l-22.6,42.2l44.9-13.4c0,0-5-2-10-4.9C204.5,121.1,216.2,83,214,65z M135.3,127.4
	c0.1-1.2,0.9-2.2,2-2.7l6.4-2.5c1.1-0.5,2.4-0.3,3.3,0.5l1.9,1.6c1.4,1.2,3.5,1,4.7-0.5l4.4-5.5c0.9-1.1,1-2.7,0.2-3.9l-1.8-2.7
	c-0.6-0.8-0.7-1.9-0.4-2.9l1.9-5.7c0.4-1.1,1.3-1.9,2.4-2.2l4.6-1c1.5-0.3,2.6-1.7,2.6-3.2v-6.8c0-1.5-1-2.8-2.5-3.2l-3.9-1
	c-1-0.3-1.8-0.9-2.2-1.9l-2.6-5.8c-0.5-1.1-0.4-2.3,0.3-3.3l2.3-3.2c0.9-1.3,0.8-3.1-0.3-4.2l-5.1-5.1c-1.1-1.1-2.9-1.3-4.2-0.3
	l-3.4,2.4c-0.9,0.6-2,0.8-3,0.5l-5.4-1.8c-1.2-0.4-2.1-1.5-2.2-2.8l-0.4-4c-0.2-1.7-1.6-2.9-3.3-2.9h-6.5c-1.5,0-2.8,1-3.2,2.5l-1,4
	c-0.2,0.9-0.9,1.7-1.7,2.2l-4.9,2.4c-1.1,0.5-2.4,0.5-3.4-0.3l-3.1-2.2c-1.3-0.9-3.1-0.8-4.2,0.3l-5.1,5.1c-1.1,1.1-1.3,2.9-0.3,4.2
	l2.3,3.3c0.7,0.9,0.8,2.1,0.4,3.1l-2.6,6.5c-0.4,1.1-1.5,1.9-2.6,2l-3.2,0.4c-1.7,0.2-2.9,1.6-2.9,3.3v6.5c0,1.5,1,2.8,2.5,3.2
	l3.9,1c1,0.3,1.8,0.9,2.2,1.9l2.6,5.8c0.5,1.1,0.4,2.3-0.3,3.3l-2.3,3.2c-0.9,1.3-0.8,3.1,0.3,4.2l5.1,5.1c1.1,1.1,2.9,1.3,4.2,0.4
	l3.2-2.3c1-0.7,2.2-0.8,3.3-0.3l5.3,2.4c1.2,0.5,2,1.7,2,3v2.6c0,1.8,1.5,3.3,3.3,3.3h6.8c1.7,0,3.1-1.2,3.3-2.9L135.3,127.4z
	 M128.5,112.5c-10.5,0-19-8.5-19-19s8.5-19,19-19s19,8.5,19,19S139,112.5,128.5,112.5z M80.4,110.1c-0.6,0.4-1.3,0.5-2,0.3l-3.7-1.2
	c-0.8-0.3-1.4-1-1.5-1.9l-0.3-2.7c-0.1-1.1-1.1-2-2.2-2h-4.4c-1,0-1.9,0.7-2.2,1.7l-0.7,2.7c-0.2,0.6-0.6,1.2-1.2,1.5l-3.3,1.7
	c-0.7,0.4-1.6,0.3-2.3-0.2l-2.1-1.5c-0.9-0.6-2.1-0.5-2.9,0.2l-3.4,3.4c-0.8,0.8-0.9,2-0.2,2.9l1.6,2.2c0.4,0.6,0.5,1.4,0.3,2.1
	l-1.8,4.4c-0.3,0.8-1,1.3-1.8,1.4l-2.2,0.3c-1.1,0.1-2,1.1-2,2.2v4.4c0,1,0.7,1.9,1.7,2.2l2.7,0.7c0.7,0.2,1.2,0.6,1.5,1.3l1.8,4
	c0.3,0.7,0.2,1.6-0.2,2.2l-1.6,2.2c-0.6,0.9-0.5,2.1,0.2,2.9l3.4,3.4c0.8,0.8,2,0.9,2.9,0.2l2.2-1.6c0.6-0.5,1.5-0.6,2.2-0.2
	l3.6,1.6c0.8,0.4,1.3,1.2,1.3,2v1.7c0,1.2,1,2.2,2.2,2.2h4.6c1.1,0,2.1-0.8,2.2-2l0.3-2.2c0.1-0.8,0.6-1.5,1.4-1.8l4.3-1.7
	c0.8-0.3,1.6-0.2,2.3,0.4l1.3,1.1c1,0.8,2.4,0.7,3.2-0.3l3-3.7c0.6-0.8,0.7-1.8,0.1-2.6l-1.2-1.8c-0.4-0.6-0.5-1.3-0.3-2l1.3-3.9
	c0.3-0.7,0.9-1.3,1.6-1.5l3.1-0.7c1-0.2,1.8-1.1,1.8-2.2v-4.6c0-1-0.7-1.9-1.7-2.2l-2.7-0.7c-0.7-0.2-1.2-0.6-1.5-1.3l-1.8-4
	c-0.3-0.7-0.2-1.6,0.2-2.2l1.6-2.2c0.6-0.9,0.5-2.1-0.2-2.9l-3.4-3.4c-0.8-0.8-2-0.9-2.9-0.2L80.4,110.1z M68.5,142.7
	c-7.1,0-12.9-5.8-12.9-12.9s5.8-12.9,12.9-12.9c7.1,0,12.9,5.8,12.9,12.9S75.7,142.7,68.5,142.7z"/>
<circle class="st1" cx="128.5" cy="93.5" r="19"/>
</svg>
