<?xml version="1.0" encoding="utf-8"?>
<!-- Generator: Adobe Illustrator 22.0.0, SVG Export Plug-In . SVG Version: 6.00 Build 0)  -->
<svg version="1.1" id="Layer_1" xmlns="http://www.w3.org/2000/svg" xmlns:xlink="http://www.w3.org/1999/xlink" x="0px" y="0px"
	 viewBox="0 0 216 216" style="enable-background:new 0 0 216 216;" xml:space="preserve">
<style type="text/css">
	.st0{fill:#FFFFFF;stroke:#FFFFFF;stroke-miterlimit:10;}
</style>
<path class="st0" d="M178,6H38c-8.8,0-16,7.2-16,16v172c0,8.8,7.2,16,16,16h140c8.8,0,16-7.2,16-16V22C194,13.2,186.8,6,178,6z
	 M186,194c0,4.4-3.6,8-8,8H38c-4.4,0-8-3.6-8-8V22c0-4.4,3.6-8,8-8h140c4.4,0,8,3.6,8,8V194z M49,69h60c3.8,0,7-3.2,7-7
	c0-3.9-3.2-7-7-7H49c-3.8,0-7,3.1-7,7C42,65.8,45.2,69,49,69z M85,77H49c-3.8,0-7,3.1-7,7c0,3.8,3.2,7,7,7h36c3.8,0,7-3.2,7-7
	C92,80.1,88.8,77,85,77z M85,99H49c-3.8,0-7,3.1-7,7c0,3.8,3.2,7,7,7h36c3.8,0,7-3.2,7-7C92,102.1,88.8,99,85,99z M132,101
	c-21.5,0-39,17.5-39,39s17.5,39,39,39s39-17.5,39-39S153.5,101,132,101z M132,171c-17.1,0-31-13.9-31-31c0-4.5,1-8.7,2.7-12.6
	l25.8,16.9l0.2,0.1l0.4,0.3v0l0.5,0.3h32.1C160.2,159.7,147.4,171,132,171z M132.9,137l-25.1-16.4c5.7-7,14.4-11.6,24.1-11.6
	c16.1,0,29.3,12.3,30.8,28H132.9z"/>
</svg>
