<?xml version="1.0" encoding="utf-8"?>
<!-- Generator: Adobe Illustrator 22.0.0, SVG Export Plug-In . SVG Version: 6.00 Build 0)  -->
<svg version="1.1" id="Layer_1" xmlns="http://www.w3.org/2000/svg" xmlns:xlink="http://www.w3.org/1999/xlink" x="0px" y="0px"
	 viewBox="0 0 216 216" style="enable-background:new 0 0 216 216;" xml:space="preserve">
<style type="text/css">
	.st0{fill:#0C0F3A;}
</style>
<path class="st0" d="M127.3,86.6c0-0.3,0-0.6,0-0.9c0-25-20.3-45.3-45.3-45.3c-0.6,0-1.1,0-1.7,0v6c0.6,0,1.1,0,1.7,0
	c21.7,0,39.3,17.6,39.3,39.3c0,0.3,0,0.6,0,0.9H127.3z M200.9,171.5l-52.1-52.1c5.5-10.4,8.7-22.3,8.7-34.8
	c0-40.9-33.3-74.3-74.3-74.3S9,43.6,9,84.6c0,40.9,33.3,74.2,74.3,74.2c12.6,0,24.5-3.2,34.9-8.7l52.1,52.1
	c4.1,4.1,9.5,6.3,15.3,6.3s11.3-2.2,15.3-6.3C209.3,193.7,209.3,180,200.9,171.5z M83.3,146.8c-34.3,0-62.3-27.9-62.3-62.2
	s27.9-62.3,62.3-62.3c34.3,0,62.3,27.9,62.3,62.3S117.6,146.8,83.3,146.8z M193.8,195.1c-2.2,2.2-5.1,3.4-8.3,3.4s-6-1.2-8.3-3.4
	l-50.5-50.5c6.3-4.6,11.9-10.2,16.5-16.5l50.5,50.5c2.2,2.2,3.4,5.1,3.4,8.3S196,192.9,193.8,195.1z"/>
</svg>
