<?xml version="1.0" encoding="utf-8"?>
<!-- Generator: Adobe Illustrator 22.0.0, SVG Export Plug-In . SVG Version: 6.00 Build 0)  -->
<svg version="1.1" id="Layer_1" xmlns="http://www.w3.org/2000/svg" xmlns:xlink="http://www.w3.org/1999/xlink" x="0px" y="0px"
	 viewBox="0 0 216 216" style="enable-background:new 0 0 216 216;" xml:space="preserve">
<style type="text/css">
	.st0{fill:#FFFFFF;}
</style>
<path class="st0" d="M206.2,91.3l-16-1.8c-3-0.3-5.5-2.4-6.4-5.2l-4.3-12.8c-0.8-2.5-0.3-5.3,1.4-7.3l9-10.7
	c2.6-3.1,2.4-7.6-0.6-10.4l-15.9-15.3c-2.6-2.5-6.7-2.8-9.6-0.8l-14.6,10.2c-2.3,1.6-5.4,1.8-7.9,0.5l-9.2-4.9
	c-2.5-1.3-4.1-3.9-4.1-6.8V11.7c0-4.2-3.4-7.6-7.6-7.6H97.9c-3.9,0-7.1,2.9-7.6,6.7l-1.8,14.8c-0.3,2.5-1.9,4.8-4.2,5.9l-12.4,6.2
	c-2.7,1.3-5.9,1-8.2-0.9L51.6,27c-3.1-2.5-7.7-2.2-10.4,0.7L26.3,43.8c-2.7,2.9-2.7,7.5,0.1,10.4l8.2,8.7c2,2.1,2.6,5.3,1.5,8
	l-5.9,15c-1,2.5-3.3,4.4-5.9,4.8L8.7,93.1c-3.8,0.6-6.6,3.9-6.5,7.8L2.8,119c0.1,3.9,3.2,7.1,7.1,7.4l16.7,1.2
	c3.1,0.2,5.8,2.3,6.7,5.3l4.3,13.6c0.8,2.5,0.2,5.3-1.5,7.3l-10,11.8c-2.6,3.1-2.4,7.7,0.5,10.5l14.9,14.2c2.6,2.5,6.7,2.8,9.7,0.7
	l12.5-8.7c1.8-1.3,4.1-1.7,6.2-1.2l12.1,3c3,0.8,5.3,3.3,5.7,6.3l2.4,17c0.5,3.8,3.8,6.6,7.6,6.6h19.8c3.7,0,6.8-2.6,7.5-6.2
	l3.1-16.3c0.5-2.6,2.3-4.7,4.7-5.6l12.5-5c2.6-1,5.5-0.6,7.6,1.1l11.4,9.2c3.1,2.5,7.7,2.2,10.4-0.8l13.5-14.8
	c2.4-2.7,2.7-6.7,0.6-9.6l-9.3-13c-1.5-2.2-1.9-5-0.8-7.4l4.9-11.7c1-2.4,3.1-4.1,5.6-4.5l17.4-3.2c3.6-0.7,6.2-3.8,6.2-7.5V98.9
	C213,95,210.1,91.8,206.2,91.3z M158.6,145.2l0.1-0.5c0,0-28.6-29.1-32.7-33.2c3.1-5.1,5.1-25.6-5.1-35.9
	c-17.4-17.4-37.9-8.2-37.9-8.2L104.4,89l-5.1,14.3L87,106.4c0,0-20.5-21.5-21.5-20.5c-1,1-6.7,20,7.2,33.8s35.9,8.2,35.9,8.2
	l34.1,32.5l0.6-0.2c-10,6.9-22.2,11-35.3,11c-34.3,0-62.2-27.9-62.2-62.2S73.7,46.8,108,46.8s62.2,27.9,62.2,62.2
	C170.2,122.5,165.9,135,158.6,145.2z"/>
</svg>
