<?xml version="1.0" encoding="utf-8"?>
<!-- Generator: Adobe Illustrator 22.0.0, SVG Export Plug-In . SVG Version: 6.00 Build 0)  -->
<svg version="1.1" id="Layer_1" xmlns="http://www.w3.org/2000/svg" xmlns:xlink="http://www.w3.org/1999/xlink" x="0px" y="0px"
	 viewBox="0 0 216 216" style="enable-background:new 0 0 216 216;" xml:space="preserve">
<style type="text/css">
	.st0{fill:#FFFFFF;}
</style>
<path class="st0" d="M108,74c19.3,0,35-15.7,35-35S127.3,4,108,4C88.7,4,73,19.7,73,39S88.7,74,108,74z M108,12
	c14.9,0,27,12.1,27,27s-12.1,27-27,27S81,53.9,81,39S93.1,12,108,12z M146,35v9h12v157H58V44h12v-9H49v175h118V35H146z M122.5,145.5
	l1-56h-27l-1,55h-9l22,30l22-29H122.5z M100.5,188c0,4.1,3.4,7.5,7.5,7.5s7.5-3.4,7.5-7.5s-3.4-7.5-7.5-7.5S100.5,183.9,100.5,188z
	 M103.5,49c-0.8-1-1.3-2.2-1.6-3.6l-6.8,0.7c0.5,3.4,1.7,6.1,3.6,8c1.9,1.9,4.3,3,7.3,3.4v4.7h3.8v-4.9c3.4-0.5,6-1.8,7.9-4
	c1.9-2.2,2.9-4.8,2.9-8c0-2.8-0.8-5.1-2.3-6.9c-1.5-1.8-4.4-3.3-8.5-4.4V23.9c1.7,0.7,2.7,2.1,3.1,4.2l6.6-0.9
	c-0.5-2.6-1.5-4.7-3.1-6.2c-1.6-1.6-3.8-2.5-6.6-2.8v-2.6h-3.8v2.6c-3,0.3-5.4,1.4-7.2,3.4c-1.8,1.9-2.7,4.3-2.7,7.2
	c0,2.8,0.8,5.2,2.4,7.2c1.6,2,4.1,3.4,7.5,4.4v10.9C105.2,50.8,104.3,50,103.5,49z M109.9,41.4c1.6,0.5,2.7,1.1,3.4,1.9
	c0.7,0.8,1,1.8,1,3c0,1.3-0.4,2.4-1.2,3.4c-0.8,1-1.9,1.6-3.2,1.8V41.4z M103.6,30.9c-0.6-0.8-0.8-1.6-0.8-2.6c0-1,0.3-1.9,0.9-2.8
	c0.6-0.8,1.4-1.4,2.5-1.8v9C105,32.4,104.1,31.7,103.6,30.9z"/>
</svg>
