<?xml version="1.0" encoding="utf-8"?>
<!-- Generator: Adobe Illustrator 22.0.0, SVG Export Plug-In . SVG Version: 6.00 Build 0)  -->
<svg version="1.1" id="Layer_1" xmlns="http://www.w3.org/2000/svg" xmlns:xlink="http://www.w3.org/1999/xlink" x="0px" y="0px"
	 viewBox="0 0 216 216" style="enable-background:new 0 0 216 216;" xml:space="preserve">
<style type="text/css">
	.st0{fill:#FFFFFF;}
</style>
<path class="st0" d="M106.5,74c10.8,0,19.5-8.7,19.5-19.5c0-10.8-8.7-19.5-19.5-19.5S87,43.7,87,54.5C87,65.3,95.7,74,106.5,74z
	 M118.2,84.5l1.3,6.7l-11.7,16.8L97.7,94l-0.2,0.1l2.2-10.6l-8.8-1.8L67.9,193.6l8.8,1.8l2-9.7l29.3-27.6l30.5,28.4l2,10l8.8-1.8
	l-22.3-112L118.2,84.5z M97,96.5l9.7,13.2l-17.6,25.2L97,96.5z M79.4,182.3l8.7-42.4l0.1-0.2l18.3,17.1L79.4,182.3z M108,155.4
	L89.4,138l18.5-26.6l19.1,26.1L108,155.4z M137.9,183.1l-28.3-26.4l18.8-17.6l1.1,1.6L137.9,183.1z M109.1,109.6l11-15.8l8.4,42.1
	L109.1,109.6z M9.5,19.5c-16,50,0,76,0,76s4-1,9-3c-17-34,0-71,0-71L9.5,19.5z M30.5,22.5c-17,38-1,69-1,69s1-1,8-4
	c-14-36,2-62,2-62L30.5,22.5z M52.5,28.5c-17,22-3,56-3,56s2-1,7-3c-14-32,2-50,2-50L52.5,28.5z M75.5,76.5c-15-26,4-41,4-41l-4-3
	c-21,22-4,47-4,47S72.5,78.5,75.5,76.5z M205.4,19.5l-9,2c0,0,17,37,0,71c5,2,9,3,9,3S221.4,69.5,205.4,19.5z M175.4,25.5
	c0,0,16,26,2,62c7,3,8,4,8,4s16-31-1-69L175.4,25.5z M156.4,31.5c0,0,16,18,2,50c5,2,7,3,7,3s14-34-3-56L156.4,31.5z M135.4,35.5
	c0,0,19,15,4,41c3,2,4,3,4,3s17-25-4-47L135.4,35.5z"/>
</svg>
