<?xml version="1.0" encoding="utf-8"?>
<!-- Generator: Adobe Illustrator 22.0.0, SVG Export Plug-In . SVG Version: 6.00 Build 0)  -->
<svg version="1.1" id="Layer_1" xmlns="http://www.w3.org/2000/svg" xmlns:xlink="http://www.w3.org/1999/xlink" x="0px" y="0px"
	 viewBox="0 0 216 216" style="enable-background:new 0 0 216 216;" xml:space="preserve">
<style type="text/css">
	.st0{display:none;fill:none;stroke:#FF0000;stroke-width:0.5;stroke-miterlimit:10;}
	.st1{fill:#FFFFFF;}
</style>
<circle class="st0" cx="107.5" cy="88.5" r="35"/>
<path class="st1" d="M95.5,110.5c0,0,3-3,6-6c4,1,11,3,19-3c12-10,6-23,6-23l-13,13l-11-11l13-13c-11-4-19,2-23,6c-7,8-3,20-3,20
	l-5,5C85.5,103.5,95.5,110.5,95.5,110.5z M48.2,97.5h4.4c2.3,0,4.3,1.6,4.9,3.8l0.1,0.6c0.5,2.2-0.4,4.4-2.3,5.5l-4.3,2.5
	c-2.4,1.4-3.2,4.6-1.7,7l4.8,7.6c1.4,2.3,4.3,3,6.6,1.7l3.6-2c1.9-1.1,4.4-0.7,5.9,0.9l0.7,0.7c1.6,1.6,1.9,4,0.9,5.9l-1.9,3.5
	c-1.3,2.4-0.5,5.3,1.8,6.7l7,4.2c2.2,1.3,5.1,0.8,6.6-1.4l3.2-4.5c1-1.3,2.5-2.1,4-2.1c0.5,0,0.9,0.1,1.4,0.2
	c2.2,0.6,3.6,2.6,3.6,4.8v4.3c0,2.7,2.2,4.9,4.9,5l9,0.2c2.8,0.1,5.1-2.2,5.1-5V144c0-2.1,1.3-4,3.3-4.7l1-0.3c2.2-0.8,4.7,0,6,2
	l2.2,3.5c1.5,2.3,4.5,3,6.8,1.6l7-4.2c2.2-1.3,3-4,2-6.4l-1.6-3.5c-0.9-2-0.4-4.4,1.3-5.9l1.4-1.2c1.6-1.4,4-1.6,5.8-0.5l2.6,1.6
	c2.4,1.4,5.5,0.7,6.9-1.7l4.1-6.8c1.3-2.2,0.8-5.1-1.4-6.6l-4.2-3.1c-1.8-1.3-2.5-3.7-1.7-5.8l0.5-1.4c0.7-1.8,2.4-3.1,4.3-3.2
	l4.9-0.4c2.7-0.2,4.8-2.6,4.6-5.3l-0.4-8c-0.2-2.8-2.6-5-5.4-4.7l-3,0.2c-2.3,0.2-4.4-1.2-5.2-3.4l-0.5-1.6
	c-0.7-2.2,0.1-4.6,2.1-5.8l3.6-2.3c2.3-1.5,3-4.5,1.6-6.8l-4.2-7c-1.3-2.2-4-3-6.4-2l-3.8,1.7c-1.9,0.9-4.1,0.5-5.6-1l-1-1
	c-1.5-1.5-1.9-3.8-0.9-5.8l1.5-2.9c1.1-2.2,0.4-4.9-1.6-6.3l-6.5-4.6c-2.2-1.6-5.3-1.1-7,1.1l-2.7,3.8c-1.4,1.9-3.9,2.6-6,1.7
	l-0.3-0.1c-1.8-0.8-3-2.6-3-4.6v-3.7c0-2.8-2.2-5-5-5h-9c-2.8,0-5,2.2-5,5V32c0,2.1-1.3,4-3.3,4.7l-1.2,0.4
	c-2.1,0.8-4.5,0.1-5.8-1.7l-3.1-4.2c-1.5-2.1-4.4-2.7-6.6-1.3l-7,4.2c-2.3,1.4-3.1,4.3-1.8,6.7l2,3.8c1,1.8,0.8,4.1-0.6,5.7
	l-1.1,1.3c-1.5,1.8-4.1,2.3-6.2,1.1l-3.2-1.8c-2.4-1.3-5.3-0.5-6.7,1.8l-4.3,7.1c-1.3,2.1-0.8,4.9,1.2,6.5l4,3.2
	c1.6,1.3,2.2,3.3,1.7,5.3l-0.1,0.4c-0.6,2-2.4,3.5-4.4,3.6l-4.6,0.4c-2.7,0.2-4.8,2.6-4.6,5.3l0.5,8.4
	C43.4,95.4,45.6,97.5,48.2,97.5z M107.5,54c19,0,34.5,15.5,34.5,34.5S126.5,123,107.5,123S73,107.5,73,88.5S88.5,54,107.5,54z M12,5
	v168.1l36.7-0.5L37,211.3l65.9-38.8h99.6L203,5H12z M192.5,162.5h-92.4L54,189.7l8.3-27.3L22,162.9V15h171L192.5,162.5z"/>
</svg>
