<?xml version="1.0" encoding="utf-8"?>
<!-- Generator: Adobe Illustrator 22.0.0, SVG Export Plug-In . SVG Version: 6.00 Build 0)  -->
<svg version="1.1" id="Layer_1" xmlns="http://www.w3.org/2000/svg" xmlns:xlink="http://www.w3.org/1999/xlink" x="0px" y="0px"
	 viewBox="0 0 216 216" style="enable-background:new 0 0 216 216;" xml:space="preserve">
<style type="text/css">
	.st0{fill:#FFFFFF;}
</style>
<path class="st0" d="M108,5.5C51.5,5.5,5.5,51.5,5.5,108s46,102.5,102.5,102.5s102.5-46,102.5-102.5S164.5,5.5,108,5.5z M108,201.5
	c-51.6,0-93.5-41.9-93.5-93.5c0-51.6,41.9-93.5,93.5-93.5c51.6,0,93.5,41.9,93.5,93.5C201.5,159.6,159.6,201.5,108,201.5z
	 M111.9,95.9V62.3c6.8,2.4,11,7,12.6,13.7l26.6-2.8c-1.8-8.6-6-15.4-12.6-20.6c-6.6-5.1-15.4-8.2-26.6-9.3v-8.5H96.7v8.5
	c-12,1-21.7,4.6-28.9,11c-7.2,6.4-10.9,14.3-10.9,23.6c0,9.3,3.2,17.2,9.6,23.6c6.4,6.5,16.5,11.3,30.2,14.5v36
	c-3.8-1.5-7.2-3.9-10.3-7.2c-3.1-3.3-5.2-7.3-6.3-11.8l-27.4,2.4c2.1,11.3,6.9,20,14.5,26.2c7.6,6.2,17.4,9.9,29.5,11.1v15.6h15.2
	v-16c13.7-1.6,24.3-6,32-13c7.7-7.1,11.5-15.8,11.5-26.2c0-9.3-3-16.9-9.1-22.8S128.8,99.6,111.9,95.9z M96.7,91.8
	c-4.6-1.6-8-3.7-10.2-6.3c-2.2-2.6-3.4-5.4-3.4-8.5c0-3.3,1.2-6.4,3.7-9.1c2.5-2.7,5.7-4.7,9.9-5.8V91.8z M124.8,147.4
	c-3.3,3.2-7.6,5.2-12.8,6v-33.5c6.3,1.5,10.8,3.6,13.6,6.4c2.8,2.8,4.2,6.1,4.2,9.9C129.7,140.5,128.1,144.3,124.8,147.4z"/>
</svg>
