<?xml version="1.0" encoding="utf-8"?>
<!-- Generator: Adobe Illustrator 22.0.0, SVG Export Plug-In . SVG Version: 6.00 Build 0)  -->
<svg version="1.1" id="Layer_1" xmlns="http://www.w3.org/2000/svg" xmlns:xlink="http://www.w3.org/1999/xlink" x="0px" y="0px"
	 viewBox="0 0 216 216" style="enable-background:new 0 0 216 216;" xml:space="preserve">
<style type="text/css">
	.st0{fill:#FFFFFF;}
</style>
<path class="st0" d="M109,6C51.7,6,5,52.7,5,110c0,57.3,46.7,104,104,104s104-46.7,104-104C213,52.7,166.3,6,109,6z M109,205.7
	c-52.8,0-95.7-42.9-95.7-95.7c0-52.8,42.9-95.7,95.7-95.7s95.7,42.9,95.7,95.7C204.7,162.8,161.8,205.7,109,205.7z M69.2,187.1
	l39.3-11.4l39.3,11.4l-38.3-70.4L69.2,187.1z M103.3,105.3c0,3.4,2.8,6.2,6.2,6.2c3.4,0,6.2-2.8,6.2-6.2c0-3.4-2.8-6.2-6.2-6.2
	C106.1,99.1,103.3,101.9,103.3,105.3z M109.5,32.4c-22.2,0-42.3,9.2-56.7,24c-2.6,2.6-0.7,7.1,2.9,7.1h0c1.1,0,2.2-0.5,3-1.3
	c12.9-13.2,30.9-21.5,50.8-21.5c19.9,0,37.9,8.2,50.8,21.5c0.8,0.8,1.9,1.3,3,1.3c3.7,0,5.5-4.4,2.9-7.1
	C151.8,41.6,131.7,32.4,109.5,32.4z M109.5,55.7c-14.8,0-28.6,5.8-38.9,16.5c-1.2,1.3-1.6,3.1-0.9,4.7c0.7,1.6,2.2,2.6,4,2.6
	c1.2,0,2.3-0.5,3.1-1.3c8.7-8.9,20.3-13.8,32.7-13.8c12.4,0,24.1,4.9,32.7,13.8c0.8,0.8,2,1.3,3.1,1.3c1.8,0,3.3-1,4-2.6
	c0.7-1.6,0.3-3.4-0.9-4.7C138.1,61.5,124.3,55.7,109.5,55.7z M131.3,97.1c1.7,0,3.2-1,3.8-2.5c0.7-1.6,0.3-3.3-0.9-4.6
	c-6.6-6.8-15.4-10.5-24.8-10.5c-9.4,0-18.2,3.7-24.8,10.5c-1.2,1.2-1.5,3-0.9,4.6c0.7,1.6,2.1,2.5,3.8,2.5c1.1,0,2.2-0.5,3-1.3
	c5-5.1,11.7-8,18.8-8c7.1,0,13.8,2.8,18.8,8C129.1,96.6,130.2,97.1,131.3,97.1z"/>
</svg>
