<?xml version="1.0" encoding="utf-8"?>
<!-- Generator: Adobe Illustrator 22.0.0, SVG Export Plug-In . SVG Version: 6.00 Build 0)  -->
<svg version="1.1" id="Layer_1" xmlns="http://www.w3.org/2000/svg" xmlns:xlink="http://www.w3.org/1999/xlink" x="0px" y="0px"
	 viewBox="0 0 216 216" style="enable-background:new 0 0 216 216;" xml:space="preserve">
<style type="text/css">
	.st0{fill:#FFFFFF;}
</style>
<path class="st0" d="M29.5,186.5v-173h134v93.2c2.8,1.1,5.5,2.4,8,3.9V5.5h-150v189h79.8c-2.1-2.5-4-5.2-5.7-8H29.5z M131.5,59.5
	h-70v9h70V59.5z M131.5,90.5h-70v9h70V90.5z M61.5,132.5h34.7c0.6-3.9,3-7.2,6.3-9v0h-41V132.5z M145.5,112H145v-10l-10.4,6l-10.4,6
	l20.8,12v-7h0.5c23.4,0,42.5,19.1,42.5,42.5S168.9,204,145.5,204S103,184.9,103,161.5c0-0.3,0-0.6,0-0.9l0.1-3.1h-6.9l-0.2,2.8
	c0,0.4,0,0.8,0,1.2c0,27.3,22.2,49.5,49.5,49.5s49.5-22.2,49.5-49.5S172.8,112,145.5,112z M141.5,130.5v33l23.8,23.8l3.5-3.5
	l-22.3-22.3v-31H141.5z"/>
</svg>
