<?xml version="1.0" encoding="utf-8"?>
<!-- Generator: Adobe Illustrator 22.0.0, SVG Export Plug-In . SVG Version: 6.00 Build 0)  -->
<svg version="1.1" id="Layer_1" xmlns="http://www.w3.org/2000/svg" xmlns:xlink="http://www.w3.org/1999/xlink" x="0px" y="0px"
	 viewBox="0 0 216 216" style="enable-background:new 0 0 216 216;" xml:space="preserve">
<style type="text/css">
	.st0{fill:#FFFFFF;}
</style>
<path class="st0" d="M97.2,2C64.5,2,38.1,28.4,38.1,61.1c0,32.6,26.4,59.1,59.1,59.1c32.6,0,59.1-26.4,59.1-59.1
	C156.2,28.4,129.8,2,97.2,2z M97.2,100.4c-21.7,0-39.4-17.7-39.4-39.4c0-21.7,17.7-39.4,39.4-39.4s39.4,17.7,39.4,39.4
	C136.5,82.8,118.9,100.4,97.2,100.4z M203,117.9h-49.8c-5,0-9,4-9,9v1.7c0,5,4,9,9,9H203c5,0,9-4,9-9v-1.7
	C212,122,208,117.9,203,117.9z M203,155.1h-49.8c-5,0-9,4-9,9v1.7c0,5,4,9,9,9H203c5,0,9-4,9-9v-1.7C212,159.2,208,155.1,203,155.1z
	 M203,192.3h-49.8c-5,0-9,4-9,9v1.7c0,5,4,9,9,9H203c5,0,9-4,9-9v-1.7C212,196.4,208,192.3,203,192.3z M116.8,192.3H30.4
	c-1.1-0.3-5.9-1.5-7.6-5.5c-1-2.3-0.6-4.4,0-7.6c0.3-1.6,1-5.5,3.3-9.8c3.1-6,10.6-16,21.9-27.3c7.7-7.7,1.1-14.2,0-15.3
	c-9.8-6.6-16.4,3.3-18.6,5.5C4.2,155.1,2,181.4,2,184.7C5.3,210.9,27.9,212,27.9,212s0-0.1-0.1-0.4c0.8,0.2,1.7,0.4,2.6,0.4h86.4
	c5.4,0,9.8-4.4,9.8-9.8S122.3,192.3,116.8,192.3z"/>
</svg>
