<?xml version="1.0" encoding="utf-8"?>
<!-- Generator: Adobe Illustrator 22.0.0, SVG Export Plug-In . SVG Version: 6.00 Build 0)  -->
<svg version="1.1" id="Layer_1" xmlns="http://www.w3.org/2000/svg" xmlns:xlink="http://www.w3.org/1999/xlink" x="0px" y="0px"
	 viewBox="0 0 216 216" style="enable-background:new 0 0 216 216;" xml:space="preserve">
<style type="text/css">
	.st0{fill:#0C0F3A;}
	.st1{display:none;fill:#0C0F3A;}
	.st2{display:none;fill:#FCFCFC;}
</style>
<path class="st0" d="M107.9,39.8c-46.3,0-86,28-103.2,67.9c17.2,39.9,57,67.9,103.2,67.9c46.3,0,86-27.9,103.2-67.9
	C193.9,67.7,154.1,39.8,107.9,39.8z M107.9,154.5c-25.8,0-46.6-20.9-46.6-46.6c0-25.8,20.9-46.6,46.6-46.6
	c25.8,0,46.6,20.9,46.6,46.6C154.5,133.6,133.6,154.5,107.9,154.5z"/>
<path class="st1" d="M154.5,107.9c0,25.8-20.9,46.6-46.6,46.6c-25.8,0-46.6-20.9-46.6-46.6c0-25.8,20.9-46.6,46.6-46.6
	C133.6,61.3,154.5,82.1,154.5,107.9z"/>
<path class="st2" d="M154.5,107.9c0,25.8-20.9,46.6-46.6,46.6c-25.8,0-46.6-20.9-46.6-46.6c0-25.8,20.9-46.6,46.6-46.6
	C133.6,61.3,154.5,82.1,154.5,107.9z"/>
<circle class="st0" cx="108" cy="107" r="29.4"/>
</svg>
